<svg xmlns="http://www.w3.org/2000/svg" width="56" height="56" fill="none" viewBox="0 0 56 56"><path fill="#1E272E" d="M11.6669 11.6665H42.0002C43.8568 11.6665 45.6372 12.404 46.95 13.7168C48.2627 15.0295 49.0002 16.81 49.0002 18.6665V39.6665C49.0002 41.523 48.2627 43.3035 46.95 44.6162C45.6372 45.929 43.8568 46.6665 42.0002 46.6665H11.6669C9.81039 46.6665 8.02991 45.929 6.71715 44.6162C5.4044 43.3035 4.6669 41.523 4.6669 39.6665V18.6665C4.6669 16.81 5.4044 15.0295 6.71715 13.7168C8.02991 12.404 9.81039 11.6665 11.6669 11.6665ZM11.6669 13.9998C10.5282 13.9998 9.4829 14.4082 8.67323 15.0872L26.8336 26.8798L44.9939 15.0872C44.1552 14.3835 43.095 13.9984 42.0002 13.9998H11.6669ZM26.8336 29.6612L7.3129 16.9865C7.1059 17.5224 6.9999 18.092 7.00023 18.6665V39.6665C7.00023 40.9042 7.4919 42.0912 8.36707 42.9663C9.24224 43.8415 10.4292 44.3332 11.6669 44.3332H42.0002C43.2379 44.3332 44.4249 43.8415 45.3001 42.9663C46.1752 42.0912 46.6669 40.9042 46.6669 39.6665V18.6665C46.6669 18.0738 46.5572 17.5068 46.3542 16.9865L26.8336 29.6588V29.6612Z"/><path stroke="#1E272E" d="M11.6669 11.6665H42.0002C43.8568 11.6665 45.6372 12.404 46.95 13.7168C48.2627 15.0295 49.0002 16.81 49.0002 18.6665V39.6665C49.0002 41.523 48.2627 43.3035 46.95 44.6162C45.6372 45.929 43.8568 46.6665 42.0002 46.6665H11.6669C9.81039 46.6665 8.02991 45.929 6.71715 44.6162C5.4044 43.3035 4.6669 41.523 4.6669 39.6665V18.6665C4.6669 16.81 5.4044 15.0295 6.71715 13.7168C8.02991 12.404 9.81039 11.6665 11.6669 11.6665ZM11.6669 13.9998C10.5282 13.9998 9.4829 14.4082 8.67323 15.0872L26.8336 26.8798L44.9939 15.0872C44.1552 14.3835 43.095 13.9984 42.0002 13.9998H11.6669ZM26.8336 29.6612L7.3129 16.9865C7.1059 17.5224 6.9999 18.092 7.00023 18.6665V39.6665C7.00023 40.9042 7.4919 42.0912 8.36707 42.9663C9.24224 43.8415 10.4292 44.3332 11.6669 44.3332H42.0002C43.2379 44.3332 44.4249 43.8415 45.3001 42.9663C46.1752 42.0912 46.6669 40.9042 46.6669 39.6665V18.6665C46.6669 18.0738 46.5572 17.5068 46.3542 16.9865L26.8336 29.6588V29.6612Z"/></svg>