<svg width="732" height="545" viewBox="0 0 732 545" fill="none" xmlns="http://www.w3.org/2000/svg">
<path d="M731.426 478.938H0V479.303H731.426V478.938Z" fill="#EBEBEB"/>
<path d="M658.137 502.475H609.687V502.841H658.137V502.475Z" fill="#EBEBEB"/>
<path d="M484.526 506.454H471.814V506.82H484.526V506.454Z" fill="#EBEBEB"/>
<path d="M608.224 488.9H580.152V489.265H608.224V488.9Z" fill="#EBEBEB"/>
<path d="M139.922 491.357H76.7412V491.723H139.922V491.357Z" fill="#EBEBEB"/>
<path d="M162.216 491.357H152.956V491.723H162.216V491.357Z" fill="#EBEBEB"/>
<path d="M329.361 497.531H192.321V497.896H329.361V497.531Z" fill="#EBEBEB"/>
<path d="M346.696 413.694H64.2338C62.021 413.691 59.9002 412.809 58.3369 411.243C56.7736 409.677 55.8956 407.554 55.8956 405.342V8.27974C55.9148 6.07965 56.8014 3.976 58.3626 2.42573C59.9238 0.875455 62.0337 0.00376887 64.2338 0H346.696C348.911 0 351.036 0.880034 352.602 2.4465C354.169 4.01297 355.049 6.13756 355.049 8.35288V405.342C355.049 407.557 354.169 409.681 352.602 411.248C351.036 412.814 348.911 413.694 346.696 413.694ZM64.2338 0.292571C62.118 0.296447 60.0902 1.13966 58.5955 2.63712C57.1008 4.13459 56.2613 6.16394 56.2613 8.27974V405.342C56.2613 407.457 57.1008 409.487 58.5955 410.984C60.0902 412.482 62.118 413.325 64.2338 413.329H346.696C348.813 413.325 350.842 412.482 352.339 410.985C353.836 409.488 354.679 407.459 354.683 405.342V8.27974C354.679 6.1626 353.836 4.13328 352.339 2.63623C350.842 1.13918 348.813 0.296438 346.696 0.292571H64.2338Z" fill="#EBEBEB"/>
<path d="M663.125 413.694H380.649C378.434 413.691 376.312 412.809 374.747 411.244C373.181 409.678 372.3 407.556 372.296 405.342V8.27974C372.319 6.07831 373.209 3.97468 374.772 2.42481C376.336 0.874944 378.447 0.00372777 380.649 0H663.125C665.323 0.0076134 667.429 0.881001 668.987 2.43086C670.545 3.98072 671.43 6.08217 671.449 8.27974V405.342C671.449 407.552 670.573 409.672 669.013 411.238C667.453 412.803 665.336 413.687 663.125 413.694ZM380.649 0.292571C378.531 0.296438 376.502 1.13918 375.005 2.63623C373.508 4.13328 372.665 6.1626 372.661 8.27974V405.342C372.665 407.459 373.508 409.488 375.005 410.985C376.502 412.482 378.531 413.325 380.649 413.329H663.125C665.242 413.325 667.272 412.482 668.769 410.985C670.266 409.488 671.109 407.459 671.112 405.342V8.27974C671.109 6.1626 670.266 4.13328 668.769 2.63623C667.272 1.13918 665.242 0.296438 663.125 0.292571H380.649Z" fill="#EBEBEB"/>
<path d="M377.577 399.9H481.98L481.98 100.688H377.577L377.577 399.9Z" fill="#FAFAFA"/>
<path d="M375.148 111.308L484.379 111.308V96.6213L375.148 96.6213V111.308Z" fill="#F0F0F0"/>
<path d="M375.148 120.29L484.379 120.29V112.947L375.148 112.947V120.29Z" fill="#F0F0F0"/>
<path d="M375.148 131.174H484.379V123.83L375.148 123.83V131.174Z" fill="#F0F0F0"/>
<path d="M375.148 142.072H484.379V134.729H375.148V142.072Z" fill="#F0F0F0"/>
<path d="M375.148 152.97H484.379V145.627H375.148V152.97Z" fill="#F0F0F0"/>
<path d="M375.148 163.854H484.379V156.511H375.148V163.854Z" fill="#F0F0F0"/>
<path d="M375.148 174.752H484.379V167.409H375.148V174.752Z" fill="#F0F0F0"/>
<path d="M375.148 185.665H484.379V178.322H375.148V185.665Z" fill="#F0F0F0"/>
<path d="M375.148 196.549H484.379V189.205H375.148V196.549Z" fill="#F0F0F0"/>
<path d="M375.148 207.447H484.379V200.104H375.148V207.447Z" fill="#F0F0F0"/>
<path d="M375.148 218.331H484.379V210.987H375.148V218.331Z" fill="#F0F0F0"/>
<path d="M375.148 229.229H484.379V221.885H375.148V229.229Z" fill="#F0F0F0"/>
<path d="M375.148 240.142H484.379V232.798H375.148V240.142Z" fill="#F0F0F0"/>
<path d="M375.148 251.025H484.379V243.682H375.148V251.025Z" fill="#F0F0F0"/>
<path d="M375.148 261.924H484.379V254.58H375.148V261.924Z" fill="#F0F0F0"/>
<path d="M375.148 272.822H484.379V265.478H375.148V272.822Z" fill="#F0F0F0"/>
<path d="M375.148 283.705H484.379V276.362H375.148V283.705Z" fill="#F0F0F0"/>
<path d="M375.148 294.604H484.379V287.26H375.148V294.604Z" fill="#F0F0F0"/>
<path d="M375.148 305.517H484.379V298.173H375.148V305.517Z" fill="#F0F0F0"/>
<path d="M375.148 316.4H484.379V309.057H375.148V316.4Z" fill="#F0F0F0"/>
<path d="M375.148 327.298H484.379V319.955H375.148V327.298Z" fill="#F0F0F0"/>
<path d="M375.148 338.197H484.379V330.853H375.148V338.197Z" fill="#F0F0F0"/>
<path d="M375.148 349.08H484.379V341.737H375.148V349.08Z" fill="#F0F0F0"/>
<path d="M375.148 359.979H484.379V352.635H375.148V359.979Z" fill="#F0F0F0"/>
<path d="M375.148 370.891H484.379V363.548H375.148V370.891Z" fill="#F0F0F0"/>
<path d="M375.148 381.775H484.379V374.431H375.148V381.775Z" fill="#F0F0F0"/>
<path d="M375.148 392.673H484.379V385.33H375.148V392.673Z" fill="#F0F0F0"/>
<path d="M375.148 403.557H484.379V396.213H375.148V403.557Z" fill="#F0F0F0"/>
<path d="M508.063 399.9H612.467V100.688H508.063L508.063 399.9Z" fill="#FAFAFA"/>
<path d="M505.649 111.308L614.88 111.308V96.6213L505.649 96.6213V111.308Z" fill="#F0F0F0"/>
<path d="M505.649 120.29L614.88 120.29V112.947L505.649 112.947V120.29Z" fill="#F0F0F0"/>
<path d="M505.649 131.174H614.88V123.83L505.649 123.83V131.174Z" fill="#F0F0F0"/>
<path d="M505.649 142.072H614.88V134.729H505.649V142.072Z" fill="#F0F0F0"/>
<path d="M505.649 152.97H614.88V145.627H505.649V152.97Z" fill="#F0F0F0"/>
<path d="M505.649 163.854H614.88V156.511H505.649V163.854Z" fill="#F0F0F0"/>
<path d="M505.649 174.752H614.88V167.409H505.649V174.752Z" fill="#F0F0F0"/>
<path d="M505.649 185.665H614.88V178.322H505.649V185.665Z" fill="#F0F0F0"/>
<path d="M505.649 196.549H614.88V189.205H505.649V196.549Z" fill="#F0F0F0"/>
<path d="M505.649 207.447H614.88V200.104H505.649V207.447Z" fill="#F0F0F0"/>
<path d="M505.649 218.331H614.88V210.987H505.649V218.331Z" fill="#F0F0F0"/>
<path d="M505.649 229.229H614.88V221.885H505.649V229.229Z" fill="#F0F0F0"/>
<path d="M505.649 240.142H614.88V232.798H505.649V240.142Z" fill="#F0F0F0"/>
<path d="M505.649 251.025H614.88V243.682H505.649V251.025Z" fill="#F0F0F0"/>
<path d="M505.649 261.924H614.88V254.58H505.649V261.924Z" fill="#F0F0F0"/>
<path d="M505.649 272.822H614.88V265.478H505.649V272.822Z" fill="#F0F0F0"/>
<path d="M505.649 283.705H614.88V276.362H505.649V283.705Z" fill="#F0F0F0"/>
<path d="M505.649 294.604H614.88V287.26H505.649V294.604Z" fill="#F0F0F0"/>
<path d="M505.649 305.517H614.88V298.173H505.649V305.517Z" fill="#F0F0F0"/>
<path d="M505.649 316.4H614.88V309.057H505.649V316.4Z" fill="#F0F0F0"/>
<path d="M505.649 327.298H614.88V319.955H505.649V327.298Z" fill="#F0F0F0"/>
<path d="M505.649 338.197H614.88V330.853H505.649V338.197Z" fill="#F0F0F0"/>
<path d="M505.649 349.08H614.88V341.737H505.649V349.08Z" fill="#F0F0F0"/>
<path d="M505.649 359.979H614.88V352.635H505.649V359.979Z" fill="#F0F0F0"/>
<path d="M505.649 370.891H614.88V363.548H505.649V370.891Z" fill="#F0F0F0"/>
<path d="M505.649 381.775H614.88V374.431H505.649V381.775Z" fill="#F0F0F0"/>
<path d="M505.649 392.673H614.88V385.33H505.649V392.673Z" fill="#F0F0F0"/>
<path d="M505.649 403.557H614.88V396.213H505.649V403.557Z" fill="#F0F0F0"/>
<path d="M247.076 401.728H351.479L351.479 102.517H247.076L247.076 401.728Z" fill="#FAFAFA"/>
<path d="M244.662 113.152L353.893 113.152V98.4646L244.662 98.4646V113.152Z" fill="#F0F0F0"/>
<path d="M244.662 116.121L353.893 116.121V114.775L244.662 114.775V116.121Z" fill="#F0F0F0"/>
<path d="M244.662 119.193L353.893 119.193V117.847L244.662 117.847V119.193Z" fill="#F0F0F0"/>
<path d="M244.662 122.251L353.893 122.251V120.905L244.662 120.905V122.251Z" fill="#F0F0F0"/>
<path d="M244.662 125.308L353.893 125.308V123.962L244.662 123.962V125.308Z" fill="#F0F0F0"/>
<path d="M244.662 128.395H353.893V127.049L244.662 127.049V128.395Z" fill="#F0F0F0"/>
<path d="M244.662 131.452H353.893V130.106H244.662V131.452Z" fill="#F0F0F0"/>
<path d="M244.662 134.524H353.893V133.178H244.662V134.524Z" fill="#F0F0F0"/>
<path d="M244.662 137.581H353.893V136.235H244.662V137.581Z" fill="#F0F0F0"/>
<path d="M244.662 140.653H353.893V139.307H244.662V140.653Z" fill="#F0F0F0"/>
<path d="M244.662 143.71H353.893V142.365H244.662V143.71Z" fill="#F0F0F0"/>
<path d="M244.662 146.782H353.893V145.437H244.662V146.782Z" fill="#F0F0F0"/>
<path d="M244.662 149.84H353.893V148.494H244.662V149.84Z" fill="#F0F0F0"/>
<path d="M244.662 152.912H353.893V151.566H244.662V152.912Z" fill="#F0F0F0"/>
<path d="M244.662 155.984H353.893V154.638H244.662V155.984Z" fill="#F0F0F0"/>
<path d="M244.662 159.041H353.893V157.695H244.662V159.041Z" fill="#F0F0F0"/>
<path d="M244.662 162.113H353.893V160.767H244.662V162.113Z" fill="#F0F0F0"/>
<path d="M244.662 165.171H353.893V163.825H244.662V165.171Z" fill="#F0F0F0"/>
<path d="M244.662 168.243H353.893V166.897H244.662V168.243Z" fill="#F0F0F0"/>
<path d="M116.589 401.728H220.993L220.993 102.517H116.589L116.589 401.728Z" fill="#FAFAFA"/>
<path d="M114.161 113.152L223.392 113.152V98.4646L114.161 98.4646V113.152Z" fill="#F0F0F0"/>
<path d="M114.161 116.121L223.392 116.121V114.775L114.161 114.775V116.121Z" fill="#F0F0F0"/>
<path d="M114.161 119.193L223.392 119.193V117.847L114.161 117.847V119.193Z" fill="#F0F0F0"/>
<path d="M114.161 122.251L223.392 122.251V120.905L114.161 120.905V122.251Z" fill="#F0F0F0"/>
<path d="M114.161 125.308L223.392 125.308V123.962L114.161 123.962V125.308Z" fill="#F0F0F0"/>
<path d="M114.161 128.395H223.392V127.049L114.161 127.049V128.395Z" fill="#F0F0F0"/>
<path d="M114.161 131.452H223.392V130.106H114.161V131.452Z" fill="#F0F0F0"/>
<path d="M114.161 134.524H223.392V133.178H114.161V134.524Z" fill="#F0F0F0"/>
<path d="M114.161 137.581H223.392V136.235H114.161V137.581Z" fill="#F0F0F0"/>
<path d="M114.161 140.653H223.392V139.307H114.161V140.653Z" fill="#F0F0F0"/>
<path d="M114.161 143.71H223.392V142.365H114.161V143.71Z" fill="#F0F0F0"/>
<path d="M114.161 146.782H223.392V145.437H114.161V146.782Z" fill="#F0F0F0"/>
<path d="M114.161 149.84H223.392V148.494H114.161V149.84Z" fill="#F0F0F0"/>
<path d="M114.161 152.912H223.392V151.566H114.161V152.912Z" fill="#F0F0F0"/>
<path d="M114.161 155.984H223.392V154.638H114.161V155.984Z" fill="#F0F0F0"/>
<path d="M114.161 159.041H223.392V157.695H114.161V159.041Z" fill="#F0F0F0"/>
<path d="M114.161 162.113H223.392V160.767H114.161V162.113Z" fill="#F0F0F0"/>
<path d="M114.161 165.171H223.392V163.825H114.161V165.171Z" fill="#F0F0F0"/>
<path d="M114.161 168.243H223.392V166.897H114.161V168.243Z" fill="#F0F0F0"/>
<path d="M386.119 61.1609C388.935 49.2326 381.547 37.2806 369.619 34.4653C357.691 31.6499 345.739 39.0374 342.923 50.9657C340.108 62.894 347.495 74.846 359.424 77.6613C371.352 80.4766 383.304 73.0892 386.119 61.1609Z" fill="#F0F0F0"/>
<path d="M383.171 59.1165C384.841 48.8291 377.855 39.1358 367.567 37.4659C357.28 35.796 347.587 42.7819 345.917 53.0693C344.247 63.3567 351.233 73.05 361.52 74.7199C371.807 76.3898 381.501 69.4039 383.171 59.1165Z" fill="#FAFAFA"/>
<path d="M363.636 57.7826C363.386 57.7863 363.139 57.7259 362.919 57.6071L354.142 52.648C353.805 52.4575 353.557 52.1411 353.453 51.7682C353.348 51.3952 353.396 50.9962 353.586 50.6585C353.68 50.4897 353.807 50.3412 353.959 50.2217C354.111 50.1023 354.286 50.0141 354.472 49.9624C354.658 49.9107 354.853 49.8965 355.045 49.9206C355.237 49.9446 355.422 50.0065 355.59 50.1027L362.144 53.8183V43.1395C362.144 42.7515 362.298 42.3794 362.572 42.1051C362.846 41.8308 363.218 41.6766 363.606 41.6766C363.994 41.6766 364.366 41.8308 364.641 42.1051C364.915 42.3794 365.069 42.7515 365.069 43.1395V56.3052C365.07 56.5629 365.003 56.8164 364.875 57.0399C364.746 57.2634 364.561 57.449 364.338 57.5778C364.125 57.7045 363.883 57.7749 363.636 57.7826Z" fill="#E0E0E0"/>
<path d="M365.713 545C522.359 545 649.345 537.586 649.345 528.441C649.345 519.295 522.359 511.881 365.713 511.881C209.067 511.881 82.0806 519.295 82.0806 528.441C82.0806 537.586 209.067 545 365.713 545Z" fill="#F5F5F5"/>
<path d="M386.193 462.773C386.193 462.773 397.545 449.271 404.8 455.561C412.056 461.852 408.384 475.207 400.017 475.646C395.054 475.914 390.157 474.417 386.193 471.419V462.773Z" fill="#407BFF"/>
<path opacity="0.2" d="M386.193 462.773C386.193 462.773 397.545 449.271 404.8 455.561C412.056 461.852 408.384 475.207 400.017 475.646C395.054 475.914 390.157 474.417 386.193 471.419V462.773Z" fill="white"/>
<path d="M339.981 428.528C339.981 428.528 330.458 418.551 324.563 420.248C318.668 421.945 319.267 445.775 337.568 436.12L339.981 428.528Z" fill="#407BFF"/>
<path opacity="0.3" d="M339.981 428.528C339.981 428.528 330.458 418.551 324.563 420.248C318.668 421.945 319.267 445.775 337.568 436.12L339.981 428.528Z" fill="white"/>
<path d="M374.007 502.972C374.007 502.972 405.312 460.155 379.859 451.48C354.405 442.805 349.914 485.93 357.184 497.94C364.455 509.95 374.007 502.972 374.007 502.972Z" fill="#407BFF"/>
<path d="M359.496 415.304C359.496 415.304 340.069 370.218 368.829 368.858C397.588 367.498 400.734 413.563 367.629 420.248L359.496 415.304Z" fill="#407BFF"/>
<path opacity="0.3" d="M374.007 502.972C374.007 502.972 405.312 460.155 379.859 451.48C354.405 442.805 349.914 485.93 357.184 497.94C364.455 509.95 374.007 502.972 374.007 502.972Z" fill="white"/>
<path opacity="0.3" d="M359.496 415.304C359.496 415.304 340.069 370.218 368.829 368.858C397.588 367.498 400.734 413.563 367.629 420.248L359.496 415.304Z" fill="white"/>
<path d="M366.386 452.211C366.386 452.211 375.821 412.407 357.609 409.233C339.396 406.058 321.549 442.03 359.072 460.111C359.159 460.111 365.596 456.117 366.386 452.211Z" fill="#407BFF"/>
<path opacity="0.2" d="M366.386 452.211C366.386 452.211 375.821 412.407 357.609 409.233C339.396 406.058 321.549 442.03 359.072 460.111C359.159 460.111 365.596 456.117 366.386 452.211Z" fill="white"/>
<path d="M396.535 496.901H343.99L348.378 530.532H392.147L396.535 496.901Z" fill="#263238"/>
<path d="M369.209 412.085C370.379 410.857 371.52 409.628 372.559 408.297C373.639 407.014 374.645 405.671 375.573 404.274C377.449 401.525 379.023 398.583 380.268 395.497C381.476 392.42 382.187 389.171 382.375 385.871V383.384C382.302 382.55 382.17 381.731 382.082 380.897C382.082 380.488 382.082 380.063 381.965 379.654L381.658 378.44C381.453 377.621 381.278 376.801 381.087 375.953C382.573 379.058 383.376 382.445 383.443 385.886C383.48 389.354 382.845 392.797 381.57 396.023C380.286 399.218 378.552 402.213 376.421 404.917C374.359 407.628 371.932 410.04 369.209 412.085Z" fill="#407BFF"/>
<path d="M376.099 373.393C373.095 374.564 370.361 376.335 368.064 378.599C365.768 380.863 363.957 383.571 362.743 386.558L361.909 388.811C361.661 389.572 361.529 390.362 361.324 391.137C360.954 392.709 360.681 394.301 360.505 395.906C360.344 397.515 360.344 399.139 360.271 400.777C360.198 402.416 360.403 404.04 360.403 405.707C360.066 404.083 359.832 402.46 359.554 400.821C359.276 399.183 359.364 397.501 359.379 395.833C359.48 392.464 360.163 389.139 361.397 386.003C362.701 382.867 364.702 380.071 367.249 377.825C368.518 376.72 369.912 375.768 371.403 374.987C372.889 374.245 374.469 373.709 376.099 373.393Z" fill="#407BFF"/>
<path d="M354.098 412.085C352.139 413.095 350.395 414.476 348.963 416.152C347.518 417.777 346.378 419.651 345.599 421.682C344.805 423.69 344.312 425.805 344.136 427.957C344.092 428.488 344.092 429.021 344.136 429.552C344.136 430.078 344.136 430.62 344.136 431.146C344.266 432.203 344.491 433.246 344.809 434.262C346.164 438.41 348.255 442.28 350.982 445.687C352.302 447.456 353.713 449.156 355.21 450.778C356.673 452.445 358.223 454.011 359.832 455.561C356.232 452.906 352.966 449.827 350.104 446.389C348.646 444.667 347.326 442.833 346.155 440.903C344.993 438.943 344.07 436.851 343.404 434.672C343.08 433.567 342.85 432.436 342.717 431.293C342.68 430.708 342.68 430.122 342.717 429.537C342.695 428.96 342.724 428.383 342.805 427.811C343.045 425.54 343.647 423.323 344.589 421.243C345.489 419.163 346.793 417.282 348.425 415.71C350.057 414.138 351.986 412.906 354.098 412.085Z" fill="#407BFF"/>
<path d="M359.496 415.303C359.247 416.839 359.013 418.361 358.881 419.897C358.704 421.417 358.606 422.945 358.589 424.476C358.568 425.983 358.666 427.489 358.881 428.981C359.035 430.424 359.499 431.816 360.242 433.063C360.68 433.74 361.066 434.449 361.397 435.184C361.724 435.926 361.988 436.694 362.187 437.48C362.548 439.025 362.744 440.604 362.773 442.191C362.85 445.318 362.51 448.442 361.763 451.48C361.763 449.929 361.895 448.393 361.866 446.843C361.88 445.313 361.807 443.785 361.646 442.264C361.496 439.275 360.585 436.375 358.998 433.838C358.181 432.405 357.682 430.814 357.536 429.171C357.367 427.591 357.367 425.997 357.536 424.417C357.789 421.307 358.448 418.243 359.496 415.303Z" fill="#407BFF"/>
<path d="M372.266 455.561C371.576 455.978 371.006 456.568 370.613 457.273C370.202 457.961 369.845 458.68 369.546 459.423C368.935 460.905 368.422 462.424 368.01 463.973C367.161 467.074 366.415 470.214 365.771 473.393C365.099 476.553 364.513 479.742 363.914 482.917C363.606 484.511 363.328 486.106 363.065 487.715C362.802 489.324 362.509 490.904 362.29 492.528C362.206 489.257 362.372 485.986 362.787 482.741C363.138 479.494 363.665 476.275 364.323 473.072C364.973 469.866 365.843 466.708 366.927 463.622C367.476 462.065 368.136 460.549 368.902 459.087C369.307 458.367 369.772 457.681 370.292 457.039C370.791 456.363 371.478 455.85 372.266 455.561Z" fill="#407BFF"/>
<path d="M381.146 456.951C382.508 459.708 383.394 462.675 383.764 465.728C384.153 468.808 384.034 471.931 383.413 474.973C383.282 475.738 383.091 476.491 382.843 477.226C382.609 477.957 382.419 478.689 382.126 479.435C380.947 482.299 379.317 484.956 377.299 487.305C376.8 487.882 376.262 488.425 375.69 488.929C375.134 489.455 374.578 489.982 374.007 490.479C375.941 488.178 377.623 485.677 379.025 483.019C380.415 480.403 381.401 477.592 381.951 474.681C382.554 471.772 382.77 468.796 382.594 465.83C382.439 462.826 381.953 459.848 381.146 456.951Z" fill="#407BFF"/>
<path d="M332.594 433.399C331.767 433.727 330.879 433.872 329.99 433.823C329.084 433.788 328.192 433.59 327.357 433.238C326.509 432.881 325.749 432.342 325.133 431.658C324.53 430.974 324.134 430.131 323.992 429.23C324.59 429.805 325.231 430.333 325.909 430.81C326.549 431.237 327.23 431.599 327.942 431.892C329.459 432.494 331.012 432.998 332.594 433.399Z" fill="#407BFF"/>
<path d="M334.54 426.816L332.214 425.69C331.489 425.352 330.741 425.069 329.975 424.841C329.252 424.637 328.504 424.534 327.752 424.534C326.932 424.601 326.125 424.778 325.353 425.061C325.867 424.268 326.644 423.683 327.547 423.408C328.477 423.159 329.455 423.159 330.385 423.408C331.271 423.673 332.096 424.111 332.813 424.695C333.537 425.267 334.126 425.991 334.54 426.816Z" fill="#407BFF"/>
<path d="M391.444 464.777C391.977 463.654 392.683 462.623 393.536 461.72C394.387 460.788 395.374 459.989 396.462 459.35C397.592 458.645 398.906 458.294 400.236 458.341C400.891 458.367 401.532 458.539 402.112 458.846C402.692 459.152 403.195 459.584 403.586 460.111C402.565 459.579 401.41 459.36 400.265 459.482C399.167 459.637 398.114 460.026 397.179 460.623C395.175 461.875 393.259 463.263 391.444 464.777Z" fill="#407BFF"/>
<path d="M391.444 471.419C394.258 471.376 397.067 471.166 399.856 470.79C401.213 470.611 402.529 470.201 403.747 469.575C404.947 468.934 405.891 467.902 406.424 466.65C406.412 467.415 406.22 468.168 405.864 468.846C405.509 469.524 404.999 470.11 404.376 470.555C403.138 471.459 401.696 472.042 400.178 472.252C398.726 472.482 397.252 472.531 395.789 472.399C394.303 472.274 392.841 471.944 391.444 471.419Z" fill="#407BFF"/>
<path d="M531.644 183.646H431.57V323.495H531.644V183.646Z" fill="#407BFF"/>
<path d="M599.535 323.495H531.644V183.646L599.535 208.047V323.495Z" fill="#407BFF"/>
<path opacity="0.2" d="M599.535 323.495H531.644V183.646L599.535 208.047V323.495Z" fill="white"/>
<path d="M599.535 304.668H431.57V323.495H599.535V304.668Z" fill="#263238"/>
<path opacity="0.3" d="M599.535 304.668H431.57V323.495H599.535V304.668Z" fill="white"/>
<path d="M528.192 282.886L547.516 260.329L580.167 288.357L551.89 309.861L511.091 309.335L490.918 277.327L528.192 282.886Z" fill="#407BFF"/>
<path d="M528.192 282.886L551.89 309.861L511.091 309.335L490.918 277.327L528.192 282.886Z" fill="white"/>
<path opacity="0.8" d="M528.192 282.886L547.516 260.329L580.167 288.357L551.89 309.861L528.192 282.886Z" fill="white"/>
<path d="M499.461 323.495H431.57V183.646L499.461 208.047V323.495Z" fill="#407BFF"/>
<path opacity="0.6" d="M499.461 323.495H431.57V183.646L499.461 208.047V323.495Z" fill="white"/>
<path opacity="0.5" d="M460.871 211.441L490.304 275.455L436.676 291.005L460.871 211.441Z" fill="white"/>
<path d="M446.17 248.802L447.823 247.719L449.461 257.959L454.128 254.931L454.435 256.833L448.115 260.943L446.17 248.802Z" fill="#407BFF"/>
<path d="M461.266 248.027L455.927 251.494C456.337 252.722 457.302 253.059 458.487 252.284C459.282 251.756 459.879 250.979 460.184 250.075L461.252 250.865C460.817 252.211 459.934 253.367 458.75 254.141C456.468 255.604 454.669 254.595 454.23 251.845C454.008 250.535 454.146 249.189 454.63 247.952C455.115 246.715 455.927 245.633 456.98 244.823C458.97 243.536 460.725 244.487 461.193 247.368C461.222 247.544 461.252 247.822 461.266 248.027ZM455.693 250.075L459.555 247.558C459.204 246.315 458.311 245.876 457.258 246.564C456.711 246.976 456.279 247.522 456.005 248.15C455.731 248.778 455.623 249.466 455.693 250.148V250.075Z" fill="#407BFF"/>
<path d="M467.469 247.792C467.134 248.454 466.629 249.015 466.006 249.416C464.543 250.382 463.49 249.855 463.168 247.822L462.451 243.433L461.325 244.165L461.047 242.438L462.173 241.707L461.837 239.586L463.431 238.562L463.768 240.668L465.582 239.483L465.86 241.21L464.046 242.395L464.748 246.783C464.894 247.69 465.304 247.953 465.918 247.558C466.276 247.315 466.563 246.982 466.752 246.593L467.469 247.792Z" fill="#407BFF"/>
<path d="M468.566 234.875C468.644 235.428 468.644 235.99 468.566 236.543L468.303 239.469L467.264 240.142L467.352 237.216C466.957 237.216 466.65 236.967 466.547 236.324C466.473 235.935 466.508 235.532 466.651 235.163C466.793 234.793 467.036 234.47 467.352 234.232C467.908 233.734 468.434 234.056 468.566 234.875Z" fill="#407BFF"/>
<path d="M470.833 245.145L471.184 243.111C472.072 243.22 472.969 242.996 473.701 242.482C474.71 241.824 475.061 241.18 474.959 240.537C474.681 238.767 470.731 243.17 470.146 239.469C470.062 238.504 470.256 237.536 470.704 236.678C471.153 235.82 471.837 235.108 472.677 234.627C473.456 234.067 474.394 233.77 475.354 233.778L475.003 235.812C474.267 235.754 473.535 235.962 472.94 236.397C471.974 237.026 471.594 237.757 471.682 238.357C471.989 240.229 475.924 235.826 476.509 239.454C476.584 240.431 476.376 241.409 475.909 242.271C475.442 243.132 474.736 243.841 473.876 244.311C473.007 244.97 471.917 245.268 470.833 245.145Z" fill="#407BFF"/>
<path d="M452.606 265.507L450.193 283.705L448.174 285.022L440.86 273.1L443.083 271.637L448.642 280.867L450.485 266.839L452.606 265.507Z" fill="#407BFF"/>
<path d="M454.084 272.866C453.73 270.684 453.982 268.447 454.813 266.399C455.643 264.351 457.021 262.57 458.794 261.251C462.232 259.012 465.289 260.651 466.006 265.113C466.375 267.309 466.129 269.565 465.295 271.631C464.461 273.696 463.072 275.491 461.281 276.815C457.873 278.966 454.801 277.313 454.084 272.866ZM463.929 266.458C463.446 263.386 461.427 262.245 459.189 263.694C458.017 264.597 457.114 265.803 456.577 267.183C456.041 268.562 455.892 270.062 456.146 271.52C456.644 274.592 458.662 275.733 460.886 274.285C462.065 273.387 462.972 272.181 463.509 270.8C464.046 269.419 464.191 267.917 463.929 266.458Z" fill="#407BFF"/>
<path d="M469.444 257.184L465.772 259.568L465.406 257.198L474.798 251.098L475.178 253.468L471.506 255.853L473.54 268.536L471.492 269.867L469.444 257.184Z" fill="#407BFF"/>
<path d="M486.691 257.462L487.071 259.802L478.762 265.2L476.348 250.148L484.423 244.896L484.804 247.237L478.777 251.157L479.406 255.077L484.745 251.596L485.125 253.893L479.815 257.316L480.488 261.47L486.691 257.462Z" fill="#407BFF"/>
<path d="M602.256 320.248V530.532H595.483V327.167H534.965V530.532H528.192V327.167H502.782V530.532H496.009V327.167H434.803V530.532H428.016V320.248H602.256Z" fill="#263238"/>
<path opacity="0.3" d="M499.461 320.248V530.532H496.009V327.167H431.57V530.532H428.016V320.248H499.461Z" fill="white"/>
<path opacity="0.3" d="M531.644 327.167H528.192V530.532H531.644V327.167Z" fill="white"/>
<path opacity="0.3" d="M598.877 327.167H595.424V530.532H598.877V327.167Z" fill="white"/>
<path d="M206.072 323.495H306.146V183.646H206.072V323.495Z" fill="#407BFF"/>
<path d="M138.166 323.495H206.057V183.646L138.166 208.047V323.495Z" fill="#407BFF"/>
<path opacity="0.2" d="M138.166 323.495H206.057V183.646L138.166 208.047V323.495Z" fill="white"/>
<path d="M138.166 323.51H306.131V304.683H138.166V323.51Z" fill="#263238"/>
<path opacity="0.3" d="M138.166 323.51H306.131V304.683H138.166V323.51Z" fill="white"/>
<path d="M205.765 287.889L245.569 297.983L220.174 316.268L180.223 305.546L205.765 287.889Z" fill="#407BFF"/>
<path opacity="0.8" d="M205.765 287.889L245.569 297.983L220.174 316.268L180.223 305.546L205.765 287.889Z" fill="white"/>
<path d="M180.223 305.546L205.765 287.889L243.989 281.789L213.196 303.249L180.223 305.546Z" fill="white"/>
<path d="M238.24 323.495H306.131V183.646L238.24 208.047V323.495Z" fill="#407BFF"/>
<path opacity="0.6" d="M238.24 323.495H306.131V183.646L238.24 208.047V323.495Z" fill="white"/>
<path opacity="0.5" d="M276.83 211.441L247.397 275.455L301.026 291.005L276.83 211.441Z" fill="white"/>
<path d="M256.131 248.802L257.784 247.719L259.422 257.959L264.089 254.931L264.396 256.833L258.076 260.943L256.131 248.802Z" fill="#407BFF"/>
<path d="M271.242 248.027L265.903 251.494C266.312 252.722 267.278 253.059 268.463 252.284C269.248 251.749 269.838 250.974 270.145 250.075L271.213 250.865C270.778 252.211 269.895 253.367 268.711 254.141C266.429 255.604 264.63 254.595 264.191 251.845C263.97 250.533 264.111 249.187 264.598 247.95C265.085 246.713 265.9 245.632 266.956 244.823C268.945 243.536 270.701 244.487 271.154 247.368C271.183 247.544 271.213 247.822 271.242 248.027ZM265.654 250.148L269.516 247.632C269.179 246.388 268.272 245.949 267.234 246.637C266.695 247.041 266.267 247.575 265.991 248.189C265.715 248.803 265.599 249.477 265.654 250.148Z" fill="#407BFF"/>
<path d="M277.43 247.792C277.096 248.455 276.591 249.016 275.967 249.416C274.504 250.382 273.451 249.855 273.041 247.822L272.324 243.433L271.213 244.165L270.935 242.438L272.046 241.707L271.71 239.586L273.305 238.562L273.641 240.668L275.47 239.483L275.748 241.21L273.919 242.395L274.621 246.783C274.767 247.69 275.177 247.953 275.791 247.558C276.152 247.319 276.441 246.985 276.625 246.593L277.43 247.792Z" fill="#407BFF"/>
<path d="M278.527 234.875C278.613 235.428 278.613 235.99 278.527 236.543L278.264 239.469L277.225 240.142L277.313 237.216C276.932 237.216 276.611 236.967 276.508 236.324C276.437 235.935 276.474 235.534 276.616 235.164C276.758 234.795 276.999 234.473 277.313 234.232C277.942 233.734 278.395 234.056 278.527 234.875Z" fill="#407BFF"/>
<path d="M280.868 245.145L281.219 243.111C282.106 243.223 283.004 242.999 283.735 242.482C284.744 241.824 285.11 241.18 284.993 240.537C284.715 238.767 280.78 243.17 280.18 239.469C280.096 238.504 280.29 237.536 280.738 236.678C281.187 235.82 281.871 235.108 282.711 234.627C283.49 234.067 284.428 233.77 285.388 233.778L285.051 235.812C284.315 235.75 283.582 235.958 282.989 236.397C282.009 237.026 281.628 237.757 281.731 238.357C282.023 240.229 285.958 235.826 286.543 239.454C286.605 240.441 286.377 241.425 285.889 242.284C285.401 243.144 284.672 243.843 283.793 244.296C282.957 244.931 281.914 245.234 280.868 245.145Z" fill="#407BFF"/>
<path d="M262.567 265.507L260.168 283.705L258.135 285.022L250.821 273.1L253.059 271.637L258.603 280.867L260.461 266.839L262.567 265.507Z" fill="#407BFF"/>
<path d="M264.045 272.866C263.691 270.682 263.945 268.444 264.778 266.395C265.611 264.347 266.992 262.567 268.77 261.251C272.193 259.012 275.25 260.651 275.967 265.113C276.339 267.308 276.096 269.564 275.265 271.629C274.433 273.695 273.046 275.49 271.257 276.815C267.819 278.966 264.776 277.313 264.045 272.866ZM273.904 266.458C273.407 263.386 271.388 262.245 269.165 263.694C267.987 264.593 267.08 265.799 266.544 267.179C266.007 268.56 265.861 270.062 266.122 271.52C266.619 274.592 268.623 275.733 270.862 274.285C272.038 273.385 272.944 272.178 273.48 270.798C274.017 269.418 274.164 267.916 273.904 266.458Z" fill="#407BFF"/>
<path d="M279.405 257.184L275.733 259.568L275.353 257.198L284.744 251.098L285.124 253.468L281.453 255.853L283.486 268.536L281.438 269.867L279.405 257.184Z" fill="#407BFF"/>
<path d="M296.652 257.462L297.032 259.802L288.723 265.2L286.309 250.148L294.399 244.896L294.765 247.237L288.738 251.157L289.367 255.077L294.721 251.596L295.086 253.893L289.747 257.374L290.405 261.529L296.652 257.462Z" fill="#407BFF"/>
<path d="M135.445 320.248V530.532H142.218V327.167H202.737V530.532H209.51V327.167H234.919V530.532H241.692V327.167H302.898V530.532H309.686V320.248H135.445Z" fill="#263238"/>
<path opacity="0.3" d="M238.24 320.248V530.532H241.692V327.167H306.131V530.532H309.686V320.248H238.24Z" fill="white"/>
<path opacity="0.3" d="M209.51 327.167H206.057V530.532H209.51V327.167Z" fill="white"/>
<path opacity="0.3" d="M142.292 327.167H138.839V530.532H142.292V327.167Z" fill="white"/>
<path d="M587.028 374.856L585.097 380.707L582.785 387.656L578.704 399.944L577.987 402.167L573.76 414.894L566.606 436.588C565.612 469.766 547.443 514.66 547.443 514.66L540.977 512.905C543.347 480.371 549.754 441.108 555.152 411.676C556.001 407.053 556.82 402.694 557.61 398.627L558.707 393.054C559.273 390.128 559.809 387.427 560.316 384.949C561.325 379.917 562.174 375.836 562.788 372.954C563.447 369.809 563.827 368.083 563.827 368.083L587.028 374.856Z" fill="#E4897B"/>
<path d="M620.132 368.639L618.669 378.63L616.694 391.796L616.475 393.258L616.051 396.184L614.588 406.175L610.506 433.004C615.173 465.86 604.918 513.198 604.918 513.198L598.248 512.569C594.766 477.285 594.635 433.341 595.117 402.855C595.19 398.13 595.278 393.697 595.366 389.689C595.359 389.567 595.359 389.445 595.366 389.323V389.104C595.556 381.161 595.776 374.841 595.922 370.848C596.054 367.702 596.112 365.991 596.112 365.991L620.132 368.639Z" fill="#E4897B"/>
<path opacity="0.2" d="M563.827 368.126L587.028 374.856L585.097 380.707L582.785 387.656L560.272 384.993C561.282 379.961 562.13 375.88 562.744 372.998C563.447 369.853 563.827 368.126 563.827 368.126Z" fill="black"/>
<path opacity="0.2" d="M620.132 368.638L618.669 378.63L616.694 391.795L595.381 389.221V389.001C595.571 381.058 595.79 374.739 595.937 370.745C596.068 367.6 596.127 365.888 596.127 365.888L620.132 368.638Z" fill="black"/>
<path d="M589.324 266.956C589.324 266.956 579.962 280.399 576.407 282.74C572.853 285.081 547.516 283.193 547.516 283.193L546.229 288.723C546.229 288.723 572.238 293.477 577.709 290.552C583.18 287.626 596.843 272.485 596.843 272.485L589.324 266.956Z" fill="#E4897B"/>
<path opacity="0.2" d="M589.324 266.956C589.324 266.956 579.962 280.399 576.407 282.74C572.853 285.081 547.516 283.193 547.516 283.193L546.229 288.723C546.229 288.723 572.238 293.477 577.709 290.552C583.18 287.626 596.843 272.485 596.843 272.485L589.324 266.956Z" fill="black"/>
<path d="M554.421 282.418L555.284 291.502C555.284 291.502 588.257 295.569 591.855 293.623C595.454 291.678 598.453 273.802 598.453 273.802L583.678 272.515C583.678 272.515 571.697 281.365 570.351 282.418C569.005 283.471 554.421 282.418 554.421 282.418Z" fill="#263238"/>
<path opacity="0.3" d="M554.421 282.418L555.284 291.502C555.284 291.502 588.257 295.569 591.855 293.623C595.454 291.678 598.453 273.802 598.453 273.802L583.678 272.515C583.678 272.515 571.697 281.365 570.351 282.418C569.005 283.471 554.421 282.418 554.421 282.418Z" fill="white"/>
<path d="M547.516 283.193C546.071 281.615 544.388 280.272 542.528 279.214C540.476 278.364 538.294 277.869 536.077 277.752L535.023 284.905C536.656 286.19 538.404 287.321 540.246 288.284C542.202 288.764 544.225 288.908 546.229 288.708L547.516 283.193Z" fill="#E4897B"/>
<path opacity="0.2" d="M547.516 283.193C546.071 281.615 544.388 280.272 542.528 279.214C540.476 278.364 538.294 277.869 536.077 277.752L535.023 284.905C536.656 286.19 538.404 287.321 540.246 288.284C542.202 288.764 544.225 288.908 546.229 288.708L547.516 283.193Z" fill="black"/>
<path d="M557.346 234.627C557.297 234.628 557.247 234.618 557.202 234.598C557.156 234.578 557.116 234.547 557.083 234.51C556.589 234.094 556.008 233.795 555.382 233.635C554.756 233.476 554.103 233.46 553.47 233.588C553.423 233.599 553.374 233.6 553.326 233.592C553.279 233.584 553.233 233.566 553.193 233.541C553.152 233.515 553.116 233.481 553.089 233.441C553.061 233.402 553.041 233.357 553.031 233.31C553.014 233.213 553.034 233.114 553.089 233.032C553.143 232.95 553.228 232.892 553.324 232.871C554.077 232.717 554.855 232.739 555.598 232.934C556.342 233.129 557.03 233.493 557.61 233.998C557.678 234.068 557.716 234.163 557.716 234.261C557.716 234.359 557.678 234.453 557.61 234.524C557.537 234.589 557.444 234.625 557.346 234.627Z" fill="#263238"/>
<path d="M555.533 238.913C554.934 240.291 554.172 241.592 553.265 242.79C553.554 243.134 553.932 243.391 554.358 243.533C554.784 243.675 555.241 243.696 555.679 243.594L555.533 238.913Z" fill="#DE5753"/>
<path d="M553.806 236.616C553.806 237.333 554.275 237.904 554.757 237.874C555.24 237.845 555.606 237.231 555.562 236.499C555.518 235.768 555.094 235.212 554.596 235.241C554.099 235.27 553.762 235.885 553.806 236.616Z" fill="#263238"/>
<path d="M554.801 235.256L553.192 234.729C553.192 234.729 554.055 236.017 554.801 235.256Z" fill="#263238"/>
<path d="M575.471 250.148C575.394 250.241 575.306 250.325 575.208 250.396C573.987 251.646 572.53 252.641 570.922 253.322C566.211 255.121 562.803 254.917 560.331 253.015C556.834 250.089 555.269 244.384 554.728 237.275C554.414 234.452 554.553 231.598 555.138 228.819V228.688C555.16 228.583 555.189 228.481 555.225 228.38C555.613 226.805 556.389 225.352 557.483 224.153C558.576 222.955 559.953 222.049 561.486 221.52C562.815 221.026 564.193 220.677 565.597 220.481C579.289 218.418 584.936 240.873 575.471 250.148Z" fill="#E4897B"/>
<path opacity="0.2" d="M575.208 250.426C573.963 251.602 572.496 252.517 570.893 253.117C566.182 254.917 562.744 254.58 560.272 252.605C563.281 252.93 566.314 252.256 568.903 250.689C569.866 250.171 570.933 249.878 572.025 249.833C573.117 249.787 574.205 249.99 575.208 250.426Z" fill="black"/>
<path d="M570.512 216.151C570.512 216.151 560.989 215.083 556.41 219.486C551.071 224.621 549.432 229.404 557.42 235.373C557.42 235.373 572.18 228.234 577.475 228.6C580.559 228.793 583.622 229.238 586.633 229.931C586.282 219.589 575.34 213.357 570.512 216.151Z" fill="#263238"/>
<path d="M568.508 253.863C569.326 254.229 570.053 254.77 570.639 255.448C571.225 256.127 571.654 256.925 571.897 257.788C572.14 258.65 572.19 259.555 572.044 260.439C571.899 261.324 571.56 262.165 571.053 262.904L590.992 257.33C590.992 257.33 581.571 253.22 580.752 246.593C580.752 246.593 570.307 245.759 568.508 253.863Z" fill="#E4897B"/>
<path d="M555.108 228.717C555.375 231.598 556.491 234.335 558.313 236.582C560.136 238.829 562.584 240.485 565.348 241.341C565.348 241.341 570.644 250.82 576.451 250.118C584.351 249.226 589.749 237.055 585.448 226.01C579.918 211.748 557.347 213.576 555.108 228.717Z" fill="#263238"/>
<path d="M560.375 239.22C560.17 237.757 561.033 235.022 563.417 235.036C565.802 235.051 568.055 240.888 562.291 242.994C561.457 243.301 560.799 242.35 560.375 239.22Z" fill="#E4897B"/>
<path d="M619.196 305.209C619.196 305.209 633.59 338.855 620.132 387.597L558.283 382.068C566.358 342.497 577.3 320.876 577.3 320.876L579.289 300.967L619.196 305.209Z" fill="#407BFF"/>
<path d="M570.234 258.588C571.868 256.123 574.057 254.075 576.625 252.61C579.194 251.144 582.07 250.301 585.024 250.148L590.1 255.516L570.234 258.588Z" fill="#407BFF"/>
<path d="M610.302 312.845L588.183 315.157V310.125L609.658 308.003C609.819 309.232 610.082 311.236 610.302 312.845Z" fill="#263238"/>
<path d="M586.457 310.3V315.332L577.3 316.283V311.207L586.457 310.3Z" fill="#263238"/>
<path d="M611.413 307.828L620.703 306.906L621.873 311.631L612.277 312.626L611.413 307.828Z" fill="#263238"/>
<path d="M517.279 301.611C515.524 300.384 513.59 299.436 511.545 298.802C509.352 298.426 507.111 298.426 504.918 298.802L505.444 306.014C507.327 306.912 509.285 307.641 511.296 308.194C513.312 308.232 515.32 307.931 517.235 307.301L517.279 301.611Z" fill="#E4897B"/>
<path d="M619.196 305.209L578.412 309.773L558.136 264.089C558.136 264.089 572.253 251.918 598.394 255.853C598.394 255.853 607.756 260.022 619.196 305.209Z" fill="#263238"/>
<path opacity="0.5" d="M619.181 305.209L578.412 309.773L568.771 288.065L564.675 278.863L558.136 264.089C558.136 264.089 572.238 251.932 598.394 255.853C598.394 255.853 607.742 260.022 619.181 305.209Z" fill="white"/>
<path opacity="0.2" d="M568.771 288.065L564.675 278.863C565.063 278.062 565.588 277.334 566.226 276.713C567.596 278.224 568.55 280.063 568.996 282.053C569.442 284.043 569.365 286.114 568.771 288.065Z" fill="black"/>
<path d="M554.567 276.713C554.567 276.713 548.35 291.868 545.38 294.911C542.411 297.954 517.279 301.611 517.279 301.611L517.206 307.287C517.206 307.287 543.64 306.307 548.35 302.269C553.06 298.232 563.198 280.473 563.198 280.473L554.567 276.713Z" fill="#E4897B"/>
<path d="M558.136 264.089C554.64 267.263 546.434 294.238 545.38 294.911C544.327 295.584 521.975 300.879 521.975 300.879C521.975 300.879 524.505 308.662 524.491 308.194C524.476 307.725 547.048 306.453 549.784 305.414C552.519 304.376 567.338 280.853 567.338 280.853C566.404 276.798 564.99 272.87 563.125 269.15C560.565 264.615 558.136 264.089 558.136 264.089Z" fill="#263238"/>
<path opacity="0.5" d="M558.136 264.089C554.64 267.263 546.434 294.238 545.38 294.911C544.327 295.584 521.975 300.879 521.975 300.879C521.975 300.879 524.505 308.662 524.491 308.194C524.476 307.725 547.048 306.453 549.784 305.414C552.519 304.376 567.338 280.853 567.338 280.853C566.404 276.798 564.99 272.87 563.125 269.15C560.565 264.615 558.136 264.089 558.136 264.089Z" fill="white"/>
<path d="M520.687 300.967L522.735 299.709L525.881 308.779H522.735L520.687 300.967Z" fill="#407BFF"/>
<path d="M530.445 528.528C531.583 527.606 532.883 526.901 534.277 526.451C534.277 526.451 538.446 522.311 540.451 509.862L545.907 508.399C546.832 508.173 547.804 508.237 548.691 508.583C549.578 508.928 550.338 509.538 550.866 510.33C551.012 510.554 551.13 510.795 551.217 511.047C551.494 512.384 551.685 513.738 551.788 515.099C552.096 519.648 552.126 524.21 551.875 528.762H550.881L550.5 520.19C550.354 517.264 548.116 520.687 547.487 523.818C546.858 526.948 545.483 530.298 539.105 530.459C531.644 530.649 528.558 530.357 530.445 528.528Z" fill="#263238"/>
<path d="M551.056 510.535C551.375 508.297 551.864 506.087 552.519 503.923H539.353C539.353 503.923 540.816 509.672 539.617 514.002C545.761 512.334 551.056 510.535 551.056 510.535Z" fill="#263238"/>
<path d="M586.603 528.528C587.742 527.606 589.042 526.901 590.436 526.451C590.436 526.451 594.605 522.311 596.609 509.862L602.066 508.399C602.991 508.173 603.963 508.237 604.85 508.583C605.737 508.928 606.496 509.538 607.025 510.33C607.171 510.554 607.289 510.795 607.376 511.047C607.651 512.385 607.846 513.738 607.961 515.099C608.26 519.648 608.284 524.211 608.034 528.762H607.083L606.703 520.19C606.557 517.264 604.319 520.687 603.69 523.818C603.061 526.948 601.686 530.298 595.307 530.459C587.876 530.649 584.775 530.357 586.603 528.528Z" fill="#263238"/>
<path d="M607.274 510.535C607.592 508.297 608.081 506.087 608.736 503.923H595.571C595.571 503.923 597.034 509.672 595.819 514.002C601.993 512.334 607.274 510.535 607.274 510.535Z" fill="#263238"/>
<path d="M573.116 217.233C573.116 217.233 577.753 204.141 590.1 209.349C602.446 214.556 592.865 228.029 596.873 235.373C600.881 242.716 595.22 249.475 592.075 247.558C592.516 247.513 592.94 247.368 593.317 247.135C593.694 246.901 594.013 246.585 594.249 246.21C594.486 245.835 594.635 245.412 594.684 244.971C594.733 244.531 594.681 244.085 594.532 243.667C593.567 240.215 588.037 241.356 585.755 231.335C583.473 221.315 579.772 225.484 579.772 225.484L573.116 217.233Z" fill="#263238"/>
<path d="M191.443 261.967C188.02 266.634 163.796 261.967 163.796 261.967V255.589L183.442 254.053L191.443 261.967Z" fill="#263238"/>
<path opacity="0.2" d="M191.443 261.967C188.02 266.634 163.796 261.967 163.796 261.967V255.589L183.442 254.053L191.443 261.967Z" fill="black"/>
<path d="M121.841 227.722C116.955 230.224 124.416 254.288 131.876 262.304C139.337 270.32 134.699 243.843 134.699 243.843L121.841 227.722Z" fill="#263238"/>
<path opacity="0.2" d="M121.841 227.722C116.955 230.224 124.416 254.288 131.876 262.304C139.337 270.32 134.699 243.843 134.699 243.843L121.841 227.722Z" fill="black"/>
<path d="M160.124 222.865L160.212 230.063L154.711 229.39V222.865C154.711 222.865 154.111 221.885 153.453 220.656C152.874 219.638 152.384 218.571 151.99 217.467C151.317 215.405 158.295 209.334 158.295 209.334C158.295 209.334 158.734 209.744 159.348 210.373C160.811 211.835 163.474 214.498 163.737 215.493C164.22 216.897 160.124 222.865 160.124 222.865Z" fill="#9F5B53"/>
<path opacity="0.2" d="M159.451 210.373C158.69 213.518 156.949 218.55 153.599 220.613C153.02 219.594 152.53 218.527 152.137 217.424C151.464 215.361 158.441 209.29 158.441 209.29C158.441 209.29 158.763 209.744 159.451 210.373Z" fill="black"/>
<path d="M173.158 521.243L183.266 522.311L183.778 516.445L185.168 500.5L175.045 499.418L173.509 517.045L173.158 521.243Z" fill="#9F5B53"/>
<path d="M122.675 519.956H132.476L132.564 517.747L132.578 517.469L133.076 503.25L133.09 502.958L133.28 497.516H123.479L122.675 519.956Z" fill="#9F5B53"/>
<path opacity="0.2" d="M175.045 499.418L173.509 517.045L183.778 516.445L185.168 500.5L175.045 499.418Z" fill="black"/>
<path opacity="0.2" d="M122.733 518.713H122.748L132.564 517.469H132.578L133.09 503.748H133.076L123.245 504.538L122.748 518.288L122.733 518.713Z" fill="black"/>
<path d="M133.836 519.312H121.929C121.734 519.312 121.544 519.378 121.392 519.501C121.24 519.623 121.135 519.794 121.095 519.985L119.164 528.762C119.09 529.136 119.164 529.524 119.372 529.844C119.58 530.164 119.904 530.39 120.276 530.474C120.382 530.489 120.491 530.489 120.597 530.474C124.445 530.474 127.253 530.181 132.096 530.181C135.021 530.181 144.062 530.489 148.187 530.489C152.312 530.489 152.839 526.422 151.113 526.1C143.564 524.447 137.947 522.165 135.46 520C135.027 519.572 134.446 519.326 133.836 519.312Z" fill="#263238"/>
<path d="M184.319 519.064H172.412C172.217 519.066 172.029 519.133 171.878 519.255C171.726 519.377 171.621 519.547 171.578 519.737L169.647 528.514C169.568 528.89 169.641 529.282 169.849 529.605C170.057 529.928 170.384 530.156 170.759 530.24H171.081C174.942 530.24 177.736 529.933 182.579 529.933C185.504 529.933 194.545 530.255 198.67 530.255C202.795 530.255 203.322 526.188 201.596 525.866C194.033 524.228 188.342 521.946 185.928 519.766C185.502 519.334 184.926 519.083 184.319 519.064Z" fill="#263238"/>
<path d="M186.089 514.924H171.71C171.71 514.924 172.88 391.152 157.33 349.358C156.233 363.167 155.004 377.518 153.79 389.455C153.029 396.857 152.327 403.206 151.581 408.048C147.046 439.221 135.621 516.182 135.621 516.182H121.417C121.417 516.182 123.099 442.439 124.796 411.793C126.654 378.542 127.444 305.429 127.517 299.153H179.55C184.495 325.426 197.192 430.181 186.089 514.924Z" fill="#407BFF"/>
<path opacity="0.7" d="M186.089 514.924H171.71C171.71 514.924 172.88 391.152 157.33 349.358C156.233 363.167 155.004 377.518 153.79 389.455C153.029 396.857 152.327 403.206 151.581 408.048C147.046 439.221 135.621 516.182 135.621 516.182H121.417C121.417 516.182 123.099 442.439 124.796 411.793C126.654 378.542 127.444 305.429 127.517 299.153H179.55C184.495 325.426 197.192 430.181 186.089 514.924Z" fill="white"/>
<path opacity="0.2" d="M157.33 349.343C156.233 363.167 155.004 377.533 153.79 389.469C152.02 372.222 149.855 359.935 149.855 359.935C149.855 359.935 147.821 358.267 142.233 349.343C136.645 340.42 142.233 323.787 142.233 323.787C142.058 339.25 157.33 349.343 157.33 349.343Z" fill="black"/>
<path d="M187.699 510.916L186.996 514.968H170.013V511.238L187.699 510.916Z" fill="#407BFF"/>
<path d="M137.259 512.481L135.621 516.226H121.373L120.437 512.481H137.259Z" fill="#407BFF"/>
<path d="M127.21 295.218V299.885H179.667L179.053 294.56L127.21 295.218Z" fill="black"/>
<path d="M144.822 293.726H143.242V301.099H144.822V293.726Z" fill="#407BFF"/>
<path d="M170.815 293.688L169.238 293.793L169.728 301.15L171.305 301.045L170.815 293.688Z" fill="#407BFF"/>
<path opacity="0.7" d="M144.822 293.726H143.242V301.099H144.822V293.726Z" fill="white"/>
<path opacity="0.7" d="M170.815 293.688L169.238 293.793L169.728 301.15L171.305 301.045L170.815 293.688Z" fill="white"/>
<path d="M161.938 197.105C161.938 197.88 161.63 198.567 161.104 198.567C160.577 198.567 160.124 197.997 160.051 197.222C159.977 196.446 160.372 195.759 160.884 195.759C161.396 195.759 161.879 196.329 161.938 197.105Z" fill="#2E353A"/>
<path d="M157.988 194.779C157.909 194.777 157.833 194.751 157.769 194.706C157.734 194.673 157.706 194.633 157.687 194.589C157.668 194.545 157.658 194.498 157.658 194.45C157.658 194.402 157.668 194.354 157.687 194.31C157.706 194.266 157.734 194.226 157.769 194.194C158.308 193.571 158.986 193.082 159.748 192.767C160.51 192.452 161.335 192.32 162.157 192.38C162.205 192.383 162.252 192.397 162.295 192.418C162.338 192.44 162.376 192.47 162.408 192.507C162.439 192.544 162.462 192.586 162.477 192.632C162.492 192.678 162.498 192.727 162.494 192.775C162.49 192.823 162.477 192.87 162.455 192.913C162.433 192.956 162.403 192.994 162.366 193.025C162.329 193.056 162.287 193.08 162.241 193.095C162.195 193.11 162.147 193.115 162.099 193.111C161.409 193.06 160.717 193.164 160.073 193.418C159.43 193.671 158.852 194.066 158.383 194.574C158.344 194.643 158.286 194.698 158.216 194.735C158.146 194.771 158.067 194.786 157.988 194.779Z" fill="#2E353A"/>
<path d="M160.051 198.597C161.124 200.319 162.395 201.91 163.839 203.336C163.515 203.854 163.053 204.272 162.506 204.543C161.958 204.814 161.347 204.928 160.738 204.872L160.051 198.597Z" fill="#A24E3F"/>
<path d="M160.65 208.134C160.542 208.607 160.4 209.072 160.226 209.524C159.308 212.122 157.619 214.378 155.384 215.99C154.818 216.4 154.221 216.767 153.599 217.087C151.975 217.949 150.179 218.439 148.342 218.52C146.505 218.601 144.673 218.271 142.979 217.555C141.474 216.887 140.113 215.933 138.971 214.747C134.07 209.787 134.187 204.068 133.646 194.369C133.47 192.29 133.791 190.199 134.582 188.269C135.937 185.018 138.527 182.438 141.782 181.094C145.037 179.75 148.693 179.753 151.946 181.101C161.455 184.978 162.757 199.416 160.65 208.134Z" fill="#9F5B53"/>
<path opacity="0.2" d="M155.384 215.99C154.818 216.4 154.221 216.767 153.599 217.087C151.975 217.949 150.179 218.439 148.342 218.52C146.505 218.601 144.673 218.271 142.979 217.555C143.417 216.389 144.002 215.282 144.72 214.264C148.367 213.803 152.069 214.402 155.384 215.99Z" fill="black"/>
<path d="M135.87 228.556C140.639 232.945 152.341 231.292 152.341 231.292C152.341 231.292 159.656 229.302 158.193 227.02C153.892 226.303 151.8 224.299 150.879 221.724C150.408 220.131 150.264 218.46 150.454 216.809C150.521 215.892 150.638 214.978 150.805 214.074L136.338 203.336C138.225 210.431 140.551 223.436 135.87 228.556Z" fill="#9F5B53"/>
<path d="M149.211 176.917C149.211 176.917 151.771 175.352 156.159 179.477C159.846 182.959 156.159 185.753 158.354 190.215C160.548 194.676 157.578 199.065 157.578 199.065C157.578 199.065 155.457 203.644 151.727 203.366C151.727 203.366 148.699 207.023 149.182 210.797C149.664 214.571 144.237 217.57 136.835 217.468C129.433 217.365 132.447 212.757 132.447 212.757C130.285 210.29 128.536 207.489 127.268 204.463C125.772 200.788 125.055 196.843 125.162 192.877C125.094 190.817 125.436 188.764 126.17 186.838C126.903 184.911 128.012 183.15 129.433 181.657C134.378 176.098 146.139 173.304 149.211 176.917Z" fill="#263238"/>
<path d="M149.869 201.245C150.045 202.171 150.427 203.047 150.987 203.806C151.546 204.566 152.269 205.19 153.102 205.633C155.077 206.467 156.364 203.688 156.028 200.776C155.75 198.187 154.419 194.545 152.298 195.027C150.176 195.51 149.211 198.641 149.869 201.245Z" fill="#9F5B53"/>
<path d="M134.699 227.649L136.835 222.134C136.835 222.134 151.244 219.355 156.13 226.523C161.016 233.691 134.699 227.649 134.699 227.649Z" fill="#407BFF"/>
<path opacity="0.6" d="M134.699 227.649L136.835 222.134C136.835 222.134 151.244 219.355 156.13 226.523C161.016 233.691 134.699 227.649 134.699 227.649Z" fill="white"/>
<path d="M126.229 296.125C126.229 296.125 128.248 278.074 125.264 250.63C124.489 243.565 123.392 235.885 121.856 227.722C121.856 227.722 150.132 222.734 169.866 227.722C169.866 227.722 170.686 231.057 171.783 236.748C171.973 237.67 172.163 238.635 172.368 239.674C172.894 242.497 173.465 245.759 174.05 249.343L174.138 249.899C174.767 253.761 175.601 258.193 176.405 262.992C178.461 273.72 179.732 284.583 180.209 295.496L126.229 296.125Z" fill="#263238"/>
<path opacity="0.2" d="M176.42 263.006C167.102 254.361 168.14 236.675 168.14 236.675L172.368 239.601C172.894 242.424 173.465 245.686 174.05 249.27L174.138 249.826C174.782 253.776 175.542 258.208 176.42 263.006Z" fill="black"/>
<path d="M169.866 227.722C177.181 230.794 192.16 253.717 192.424 258.442C192.687 263.167 189.132 264.981 182.418 260.87C175.703 256.76 169.164 241.853 168.228 237.377C167.292 232.901 169.866 227.722 169.866 227.722Z" fill="#263238"/>
</svg>
