<svg width="56" height="56" viewBox="0 0 56 56" fill="none" xmlns="http://www.w3.org/2000/svg">
<path d="M28 31.5C26.2694 31.5 24.5777 30.9868 23.1388 30.0254C21.6998 29.0639 20.5783 27.6973 19.9161 26.0985C19.2538 24.4996 19.0805 22.7403 19.4181 21.043C19.7558 19.3456 20.5891 17.7865 21.8128 16.5628C23.0365 15.3391 24.5956 14.5058 26.293 14.1681C27.9903 13.8305 29.7496 14.0038 31.3485 14.6661C32.9473 15.3283 34.3139 16.4498 35.2754 17.8888C36.2368 19.3277 36.75 21.0194 36.75 22.75C36.7472 25.0698 35.8245 27.2938 34.1841 28.9341C32.5438 30.5745 30.3198 31.4972 28 31.5ZM28 17.5C26.9617 17.5 25.9466 17.8079 25.0833 18.3848C24.2199 18.9617 23.547 19.7816 23.1496 20.7409C22.7523 21.7002 22.6483 22.7558 22.8509 23.7742C23.0535 24.7926 23.5535 25.7281 24.2877 26.4623C25.0219 27.1965 25.9574 27.6966 26.9758 27.8991C27.9942 28.1017 29.0498 27.9977 30.0091 27.6004C30.9684 27.203 31.7883 26.5301 32.3652 25.6668C32.9421 24.8034 33.25 23.7884 33.25 22.75C33.2486 21.358 32.695 20.0235 31.7108 19.0392C30.7265 18.055 29.392 17.5014 28 17.5Z" fill="#1E272E"/>
<path d="M28 52.5L13.237 35.0893C13.0319 34.8278 12.8289 34.5647 12.628 34.3C10.1062 30.9781 8.74391 26.9206 8.75002 22.75C8.75002 17.6446 10.7781 12.7483 14.3882 9.1382C17.9983 5.52812 22.8946 3.5 28 3.5C33.1054 3.5 38.0017 5.52812 41.6118 9.1382C45.2219 12.7483 47.25 17.6446 47.25 22.75C47.2561 26.9187 45.8944 30.9744 43.3738 34.2948L43.372 34.3C43.372 34.3 42.847 34.9895 42.7683 35.0823L28 52.5ZM15.421 32.1912C15.4245 32.1912 15.8305 32.7302 15.9233 32.8457L28 47.089L40.0925 32.8265C40.1695 32.7302 40.579 32.1877 40.5808 32.186C42.6408 29.4719 43.7541 26.1573 43.75 22.75C43.75 18.5728 42.0906 14.5668 39.1369 11.6131C36.1832 8.65937 32.1772 7 28 7C23.8229 7 19.8168 8.65937 16.8631 11.6131C13.9094 14.5668 12.25 18.5728 12.25 22.75C12.2463 26.1594 13.3609 29.476 15.4228 32.1912H15.421Z" fill="#1E272E"/>
</svg>
