<svg width="56" height="56" viewBox="0 0 56 56" fill="none" xmlns="http://www.w3.org/2000/svg">
<path d="M24.6263 14.56L16.7326 5.44837C15.8226 4.39837 14.1543 4.40303 13.0973 5.46237L6.60598 11.9654C4.67398 13.8997 4.12098 16.772 5.23864 19.075C11.9158 32.9 23.0654 44.0652 36.881 50.7617C39.1816 51.8794 42.0516 51.3264 43.9836 49.392L50.5356 42.8284C51.5973 41.7667 51.5996 40.089 50.5403 39.179L41.3936 31.3274C40.437 30.506 38.9506 30.6134 37.9916 31.5747L34.809 34.762C34.646 34.9328 34.4316 35.0454 34.1985 35.0825C33.9654 35.1196 33.7265 35.0791 33.5186 34.9674C28.3163 31.9716 24.001 27.6506 21.012 22.4444C20.9 22.2361 20.8595 21.9969 20.8966 21.7634C20.9337 21.5299 21.0464 21.315 21.2173 21.1517L24.3906 17.976C25.352 17.01 25.457 15.5167 24.6263 14.5577V14.56Z" stroke="#1E272E" stroke-width="3" stroke-linecap="round" stroke-linejoin="round"/>
</svg>
